<svg width="1284" height="316" viewBox="0 0 1284 316" fill="none" xmlns="http://www.w3.org/2000/svg">
<path d="M722.004 98.142C697.046 99.2576 674.546 113.911 663.467 136.278L661.651 141.005H788.709L784.152 131.551C773.753 114.213 755.905 101.716 734.634 98.7471C730.38 98.142 726.145 97.9529 722.004 98.142ZM175.618 95.2492C135.799 95.2492 103.524 127.467 103.524 167.23C103.524 206.992 135.799 239.229 175.618 239.229C215.437 239.229 247.712 206.992 247.712 167.23C247.712 127.467 215.437 95.2492 175.618 95.2492ZM720.378 62.1423C726.712 61.8587 733.159 62.1423 739.626 63.0499C791.489 70.3103 830.041 114.724 829.908 167.078L793.871 166.984V166.946H657.133L656.565 172.845C658.721 197.255 673.903 219.471 697.519 229.794C728.981 243.559 765.793 232.006 783.737 202.738L814.48 221.57C787.121 266.191 731.023 283.794 683.055 262.807C635.087 241.819 609.959 188.633 624.234 138.264C636.731 94.1904 676.002 64.1087 720.378 62.1423ZM1006.16 62.0478H1041.54V62.1045H1174.36H1186.26V270.786H1150.88V97.4614H1041.54V270.729H1006.16V62.0478ZM312.677 62.0478H348.034V62.1045H480.878H492.77V270.786H457.395V97.4614H348.034V270.729H312.677V62.0478ZM854.828 61.6318H890.204V61.6507H983.531V97.0265H890.204V270.313H854.828V61.6318ZM253.743 61.6318H289.119V270.313H253.743V233.859L248.562 240.118C229.901 258.779 204.111 270.313 175.618 270.313C118.631 270.313 72.4398 224.16 72.4398 167.23C72.4398 110.318 118.631 64.1654 175.618 64.1654C204.111 64.1654 229.901 75.6989 248.562 94.3416L253.743 100.619V61.6318ZM533.459 60.9133H568.835V140.665H595.343V166.625H568.835V244.145H595.362V270.086H533.119V244.145H533.459V166.625H510.543V140.665H533.459V60.9133Z" fill="#404040"/>
<path d="M1283.7 240.685V270.785H1202.99V240.685H1283.7Z" fill="#56FF9D"/>
<path fill-rule="evenodd" clip-rule="evenodd" d="M78.6497 28.8896L44.4206 42.9228L30.9702 76.163C19.9995 103.275 17.3798 111.647 16.7595 121.575L16 133.746H23.4162H30.8324V122.026V110.305H37.6795C43.2586 110.305 45.7939 111.603 51.3752 117.319L58.2245 124.333L64.1202 113.021C75.8533 90.5115 94.2654 71.386 114.823 60.3547L124.58 55.119L117.639 48.3411L110.698 41.5632L113.112 31.3052C117.844 11.198 121.221 11.4353 78.6497 28.8896Z" fill="#4DE89D"/>
</svg>
